Coordinates
version=1
nRows=10
nColumns=40
inDegrees=yes

Units are S.I. units (second, meters, Newtons, ...)
If the header above contains a line with 'inDegrees', this indicates whether rotational values are in degrees (yes) or radians (no).

endheader
time	pelvis_tilt	pelvis_list	pelvis_rotation	pelvis_tx	pelvis_ty	pelvis_tz	hip_flexion_r	hip_adduction_r	hip_rotation_r	knee_angle_r	knee_angle_r_beta	ankle_angle_r	subtalar_angle_r	mtp_angle_r	hip_flexion_l	hip_adduction_l	hip_rotation_l	knee_angle_l	knee_angle_l_beta	ankle_angle_l	subtalar_angle_l	mtp_angle_l	lumbar_extension	lumbar_bending	lumbar_rotation	arm_flex_r	arm_add_r	arm_rot_r	elbow_flex_r	pro_sup_r	wrist_flex_r	wrist_dev_r	arm_flex_l	arm_add_l	arm_rot_l	elbow_flex_l	pro_sup_l	wrist_flex_l	wrist_dev_l
      8.25000000	    -89.21260009	     79.04061473	    -88.84927009	      0.19381057	      0.93406725	      0.80306204	    -10.30598266	    -32.31295650	    -39.49493673	      1.58047922	      0.02758457	    -20.76026433	      0.00000000	      0.00000000	    -10.16579671	    -32.86741629	    -38.76107685	      0.46578240	      0.00812944	    -21.82026953	      0.00000000	      0.00000000	    -15.88426016	     -4.31379103	      5.18373158	      0.00000000	    -15.00003034	      0.00000000	     75.00017585	     45.00000026	      0.00000000	      0.00000000	      0.00000000	    -15.00003034	      0.00000000	     75.00017585	     45.00000026	      0.00000000	      0.00000000
      8.25500000	    -89.22064396	     78.87846824	    -88.81741510	      0.19416072	      0.93414322	      0.80325613	    -10.50449012	    -32.28089438	    -39.49979311	      1.52154333	      0.02655594	    -20.76236429	      0.00000000	      0.00000000	    -10.29705780	    -32.87964081	    -38.75449637	      0.46448448	      0.00810678	    -21.87411628	      0.00000000	      0.00000000	    -16.19098501	     -4.31614555	      5.35887871	      0.00000000	    -15.00003020	      0.00000000	     75.00017585	     45.00000026	      0.00000000	      0.00000000	      0.00000000	    -15.00003020	      0.00000000	     75.00017585	     45.00000026	      0.00000000	      0.00000000
      8.26000000	    -89.21474054	     78.89584103	    -88.81095492	      0.19438832	      0.93419051	      0.80323917	    -10.46636436	    -32.28610455	    -39.49833218	      1.53985424	      0.02687553	    -20.73705448	      0.00000000	      0.00000000	    -10.24384245	    -32.88547172	    -38.74343098	      0.46569644	      0.00812794	    -21.89823748	      0.00000000	      0.00000000	    -16.24125226	     -4.30653327	      5.33470863	      0.00000000	    -15.00003002	      0.00000000	     75.00017585	     45.00000026	      0.00000000	      0.00000000	      0.00000000	    -15.00003002	      0.00000000	     75.00017585	     45.00000026	      0.00000000	      0.00000000
      8.26500000	    -89.21251023	     79.05955535	    -88.80765257	      0.19453478	      0.93421329	      0.80307614	    -10.24736221	    -32.31285417	    -39.48997567	      1.59529360	      0.02784313	    -20.76847598	      0.00000000	      0.00000000	    -10.03213971	    -32.89284192	    -38.71903776	      0.48329066	      0.00843501	    -21.88197222	      0.00000000	      0.00000000	    -16.07341296	     -4.28755409	      5.10612916	      0.00000000	    -15.00002993	      0.00000000	     75.00017585	     45.00000026	      0.00000000	      0.00000000	      0.00000000	    -15.00002993	      0.00000000	     75.00017585	     45.00000026	      0.00000000	      0.00000000
      8.27000000	    -89.20881377	     78.90207258	    -88.79128320	      0.19493863	      0.93421944	      0.80324309	    -10.42332412	    -32.28775470	    -39.49652584	      1.54821787	      0.02702150	    -20.82289355	      0.00000000	      0.00000000	    -10.15662828	    -32.90203610	    -38.69190788	      0.47660927	      0.00831840	    -21.96934060	      0.00000000	      0.00000000	    -16.39925931	     -4.26862900	      5.22768933	      0.00000000	    -15.00003011	      0.00000000	     75.00017585	     45.00000026	      0.00000000	      0.00000000	      0.00000000	    -15.00003011	      0.00000000	     75.00017585	     45.00000026	      0.00000000	      0.00000000
      8.27500000	    -89.20218775	     78.91257494	    -88.80105434	      0.19522393	      0.93424949	      0.80323183	    -10.35528698	    -32.31875728	    -39.49091827	      1.63449340	      0.02852729	    -20.67075175	      0.00000000	      0.00000000	    -10.11889727	    -32.90399478	    -38.68383140	      0.47485102	      0.00828771	    -22.01954580	      0.00000000	      0.00000000	    -16.48355563	     -4.25793288	      5.28661436	      0.00000000	    -15.00002937	      0.00000000	     75.00017585	     45.00000026	      0.00000000	      0.00000000	      0.00000000	    -15.00002937	      0.00000000	     75.00017585	     45.00000026	      0.00000000	      0.00000000
      8.28000000	    -89.20059189	     78.90856538	    -88.78993586	      0.19552365	      0.93423466	      0.80324571	    -10.32800810	    -32.31844300	    -39.48923201	      1.63678882	      0.02856735	    -20.77727288	      0.00000000	      0.00000000	    -10.07949711	    -32.91416887	    -38.63575504	      0.48621101	      0.00848598	    -22.04992021	      0.00000000	      0.00000000	    -16.58350344	     -4.23420390	      5.26607373	      0.00000000	    -15.00002913	      0.00000000	     75.00017585	     45.00000026	      0.00000000	      0.00000000	      0.00000000	    -15.00002913	      0.00000000	     75.00017585	     45.00000026	      0.00000000	      0.00000000
      8.28500000	    -89.19896360	     78.91127702	    -88.79542976	      0.19585846	      0.93421985	      0.80326545	    -10.28139305	    -32.33206009	    -39.48570352	      1.66061020	      0.02898312	    -20.79263395	      0.00000000	      0.00000000	    -10.04026912	    -32.91921451	    -38.61705291	      0.49609851	      0.00865855	    -22.08074514	      0.00000000	      0.00000000	    -16.68560638	     -4.21633445	      5.25371971	      0.00000000	    -15.00002898	      0.00000000	     75.00017585	     45.00000026	      0.00000000	      0.00000000	      0.00000000	    -15.00002898	      0.00000000	     75.00017585	     45.00000026	      0.00000000	      0.00000000
      8.29000000	    -88.88449685	     79.39560221	    -88.63036376	      0.19715665	      0.93366574	      0.80236686	     -9.73918944	    -32.51011576	    -39.05835793	      2.35358747	      0.04107785	    -19.96765703	      0.00000000	      0.00000000	     -8.74965056	    -33.09817074	    -37.34441777	      1.21042381	      0.02112588	    -21.14072505	      0.00000000	      0.00000000	    -16.41664635	     -4.16469806	      4.74453012	      0.00000000	    -15.00002872	      0.00000000	     75.00017585	     45.00000026	      0.00000000	      0.00000000	      0.00000000	    -15.00002872	      0.00000000	     75.00017585	     45.00000026	      0.00000000	      0.00000000
      8.29500000	    -89.19831249	     78.95052951	    -88.81102431	      0.19658277	      0.93420656	      0.80325775	    -10.10101245	    -32.38010145	    -39.47217787	      1.77574148	      0.03099254	    -20.82481089	      0.00000000	      0.00000000	     -9.92417404	    -32.93194271	    -38.51215508	      0.51451819	      0.00898004	    -22.13603321	      0.00000000	      0.00000000	    -16.87820963	     -4.18615122	      5.29919743	      0.00000000	    -15.00002703	      0.00000000	     75.00017585	     45.00000026	      0.00000000	      0.00000000	      0.00000000	    -15.00002703	      0.00000000	     75.00017585	     45.00000026	      0.00000000	      0.00000000
